<svg width="3176" height="2178" viewBox="0 0 3176 2178" fill="none" xmlns="http://www.w3.org/2000/svg">
<path d="M2140.48 430.607L2117.34 621.895L1746.31 789.011L1665.33 730.371L1603.26 758.348L1463.62 618.836L1507.77 449.856L1659.6 471.342L1757.39 260.358L1944.5 307.21L2140.48 430.607Z" fill="#213E60"/>
<path d="M774.889 1535.14L758.274 1401L640.308 1236.42L629.35 1000.22L536.307 932.701L602.885 732.162L756.573 653.752L921.338 652.185L1023.01 725.596L1168.98 623.909L1267.32 814.302L1233.94 961.125L1349.92 1084.37L1264.32 1229.41L1141.92 1136.97L958.445 1411.22L959.592 1504.48L774.889 1535.14Z" fill="#213E60"/>
<path d="M2288.31 1866.91L2247.41 1687.26L2155.91 1578.33L2144.28 1409.5L2204.09 1330.57L2320.44 1315.28L2317.15 1467.02L2409.52 1683.83L2477.88 1723.52L2661.79 1734.71L2682.33 1831.1L2615.23 1942.41L2499.72 1872.06L2288.31 1866.91Z" fill="#213E60"/>
<path d="M536.307 932.701L629.35 1000.22L640.308 1236.42L758.274 1401L662.264 1360.11L471.706 1446.13L481.319 1308.41L340.606 1259.02L177.938 1354.37L134.937 1198.44L21.5202 1146.74L2.76904 1064.16L202.9 1126.82L331.468 1015.07L446.863 1045.5L536.307 932.701Z" fill="#213E60"/>
<path d="M2799.5 1477.92L2768.68 1395.63L2557.2 1247.24L2418.86 1235.75L2371.23 929.119L2438.92 779.163L2562.86 558.406L2616.58 679.639L2745.46 700.156L2723.86 818.33L2905.28 1052.96L2871.81 1228.73L2799.5 1477.92Z" fill="#213E60"/>
<path d="M2144.28 1409.5L2155.91 1578.33L2247.41 1687.26L2288.31 1866.91L2168.69 1824.98L2100.21 1931.59L1975.2 1882.2L1896.71 1959.12L1833.62 1833.11L1751.53 1409.5L1932.87 1409.43L2144.28 1409.5Z" fill="#213E60"/>
<path d="M1264.32 1229.41L1349.93 1084.37L1408.59 970.675L1516.15 957.022L1623 826.761L1667.94 935.536L1782.19 1014.99L1957.56 926.732L1993.08 1140.85L1937.03 1162.26L1932.87 1409.43L1751.53 1409.5L1604.02 1409.8L1467.85 1358.55L1264.32 1229.41Z" fill="#213E60"/>
<path d="M1507.77 449.856L1463.62 618.836L1603.26 758.348L1665.33 730.371L1623 826.761L1516.15 957.022L1408.59 970.675L1349.93 1084.37L1233.94 961.125L1267.33 814.302L1168.98 623.91L1108.89 272.892L1517.22 121.518L1507.77 449.856Z" fill="#213E60"/>
<path d="M959.593 1504.48L958.445 1411.22L1141.92 1136.97L1264.32 1229.41L1467.85 1358.55L1604.02 1409.8L1658.8 1830.57L1519.67 1946.44L1432.88 1742.84L1196.95 1784.62L1125.94 1669.2L959.593 1504.48Z" fill="#213E60"/>
<path d="M758.274 1401L774.889 1535.14L719.862 1558.71L719.941 2107.29L576.578 1955.54L479.302 1991.05L394.961 1880.93L269.518 1611.83L356.509 1505.37L471.706 1446.13L662.264 1360.11L758.274 1401Z" fill="#213E60"/>
<path d="M2140.48 430.607L1944.5 307.21L1757.39 260.358L1659.6 471.342L1507.77 449.855L1517.22 121.518L1685.43 72.7258L1745.2 2L1887.58 22.218L1919.62 200.45L2099.73 299.153L2140.48 430.607Z" fill="#213E60"/>
<path d="M2117.34 621.895L2140.48 430.607L2099.73 299.153L2274.07 200.897L2450.27 324.22L2562.86 558.406L2438.92 779.163L2248.4 785.355L2145.5 723.582L2117.34 621.895Z" fill="#213E60"/>
<path d="M1751.53 1409.5L1833.62 1833.11L1896.71 1959.12L1714.43 2176.37L1559.19 2118.18L1519.67 1946.44L1658.8 1830.57L1604.01 1409.8L1751.53 1409.5Z" fill="#213E60"/>
<path d="M602.885 732.162L536.307 932.701L446.863 1045.5L331.468 1015.06L202.9 1126.82L2.76916 1064.16L0 832.953L137.192 731.639L285.777 573.625L512.492 586.681L602.885 732.162Z" fill="#213E60"/>
<path d="M1665.33 730.371L1746.31 789.011L2117.34 621.895L2145.5 723.582L2248.4 785.355L2438.92 779.163L2371.23 929.12L2418.86 1235.75L2320.44 1315.28L2204.09 1330.57L2144.28 1409.5L1932.87 1409.43L1937.03 1162.26L1993.08 1140.85L1957.56 926.732L1782.19 1014.99L1667.94 935.536L1623 826.761L1665.33 730.371Z" fill="#213E60"/>
<path d="M2661.79 1734.71L2477.88 1723.52L2409.52 1683.83L2317.15 1467.02L2320.44 1315.28L2418.86 1235.75L2557.2 1247.24L2768.68 1395.63L2799.5 1477.92L2650.91 1550.88L2661.79 1734.71Z" fill="#213E60"/>
<path d="M2871.81 1228.73L2905.28 1052.96L2723.86 818.331L2745.46 700.156L2922.33 682.027L3031.52 868.316L3156.84 880.104L3140.11 1030.28L3072.9 1055.72L3069.37 1227.76L3001.02 1285.36L2871.81 1228.73Z" fill="#213E60"/>
<path d="M2486.69 1434.58C2501.07 1448.48 2501.07 1471.52 2486.69 1485.42C2472.65 1498.99 2450.26 1498.6 2436.69 1484.55C2423.47 1470.85 2423.47 1449.15 2436.69 1435.45C2450.26 1421.4 2472.65 1421.01 2486.69 1434.58Z" fill="#4387D7" stroke="black"/>
<path d="M2043.69 1673.58C2058.07 1687.48 2058.07 1710.52 2043.69 1724.42C2029.65 1737.99 2007.26 1737.6 1993.69 1723.55C1980.47 1709.85 1980.47 1688.15 1993.69 1674.45C2007.26 1660.4 2029.65 1660.01 2043.69 1673.58Z" fill="#4387D7" stroke="black"/>
<path d="M1755.69 1723.58C1770.07 1737.48 1770.07 1760.52 1755.69 1774.42C1741.65 1787.99 1719.26 1787.6 1705.69 1773.55C1692.47 1759.85 1692.47 1738.15 1705.69 1724.45C1719.26 1710.4 1741.65 1710.01 1755.69 1723.58Z" fill="#4387D7" stroke="black"/>
<path d="M2892.69 782.58C2907.07 796.476 2907.07 819.524 2892.69 833.42C2878.65 846.993 2856.26 846.603 2842.69 832.549C2829.47 818.853 2829.47 797.147 2842.69 783.451C2856.26 769.397 2878.65 769.007 2892.69 782.58Z" fill="#4387D7" stroke="black"/>
<path d="M2338.69 417.58C2353.07 431.476 2353.07 454.524 2338.69 468.42C2324.65 481.993 2302.26 481.603 2288.69 467.549C2275.47 453.853 2275.47 432.147 2288.69 418.451C2302.26 404.397 2324.65 404.007 2338.69 417.58Z" fill="#4387D7" stroke="black"/>
<path d="M1493.69 1502.58C1508.07 1516.48 1508.07 1539.52 1493.69 1553.42C1479.65 1566.99 1457.26 1566.6 1443.69 1552.55C1430.47 1538.85 1430.47 1517.15 1443.69 1503.45C1457.26 1489.4 1479.65 1489.01 1493.69 1502.58Z" fill="#4387D7" stroke="black"/>
<path d="M2104.69 782.58C2119.07 796.476 2119.07 819.524 2104.69 833.42C2090.65 846.993 2068.26 846.603 2054.69 832.549C2041.47 818.853 2041.47 797.147 2054.69 783.451C2068.26 769.397 2090.65 769.007 2104.69 782.58Z" fill="#4387D7" stroke="black"/>
<path d="M1776.69 1108.58C1791.07 1122.48 1791.07 1145.52 1776.69 1159.42C1762.65 1172.99 1740.26 1172.6 1726.69 1158.55C1713.47 1144.85 1713.47 1123.15 1726.69 1109.45C1740.26 1095.4 1762.65 1095.01 1776.69 1108.58Z" fill="#4387D7" stroke="black"/>
<path d="M1323.69 317.58C1338.07 331.476 1338.07 354.524 1323.69 368.42C1309.65 381.993 1287.26 381.603 1273.69 367.549C1260.47 353.853 1260.47 332.147 1273.69 318.451C1287.26 304.397 1309.65 304.007 1323.69 317.58Z" fill="#4387D7" stroke="black"/>
<path d="M879.694 851.58C894.075 865.476 894.075 888.524 879.694 902.42C865.649 915.993 843.258 915.603 829.694 901.549C816.475 887.853 816.475 866.147 829.694 852.451C843.258 838.397 865.649 838.007 879.694 851.58Z" fill="#4387D7" stroke="black"/>
<path d="M480.694 1158.58C495.075 1172.48 495.075 1195.52 480.694 1209.42C466.649 1222.99 444.258 1222.6 430.694 1208.55C417.475 1194.85 417.475 1173.15 430.694 1159.45C444.258 1145.4 466.649 1145.01 480.694 1158.58Z" fill="#4387D7" stroke="black"/>
<path d="M480.694 1658.58C495.075 1672.48 495.075 1695.52 480.694 1709.42C466.649 1722.99 444.258 1722.6 430.694 1708.55C417.475 1694.85 417.475 1673.15 430.694 1659.45C444.258 1645.4 466.649 1645.01 480.694 1658.58Z" fill="#4387D7" stroke="black"/>
<path d="M360.694 696.58C375.075 710.476 375.075 733.524 360.694 747.42C346.649 760.993 324.258 760.603 310.694 746.549C297.475 732.853 297.475 711.147 310.694 697.451C324.258 683.397 346.649 683.007 360.694 696.58Z" fill="#4387D7" stroke="black"/>
<path d="M1797.69 147.58C1812.07 161.476 1812.07 184.524 1797.69 198.42C1783.65 211.993 1761.26 211.603 1747.69 197.549C1734.47 183.853 1734.47 162.147 1747.69 148.451C1761.26 134.397 1783.65 134.007 1797.69 147.58Z" fill="#4387D7" stroke="black"/>
<path d="M1822.81 611.221L1830.94 602.798C1846.29 586.896 1871.63 586.455 1887.52 601.813L1896.23 610.236C1912.51 625.96 1912.51 652.04 1896.23 667.764L1887.52 676.187C1871.63 691.545 1846.29 691.104 1830.94 675.202L1822.81 666.779C1807.85 651.28 1807.85 626.72 1822.81 611.221Z" fill="#FBFF00" stroke="black"/>
<path d="M2338.81 1707.22L2346.94 1698.8C2362.29 1682.9 2387.63 1682.46 2403.52 1697.81L2412.23 1706.24C2428.51 1721.96 2428.51 1748.04 2412.23 1763.76L2403.52 1772.19C2387.63 1787.54 2362.29 1787.1 2346.94 1771.2L2338.81 1762.78C2323.85 1747.28 2323.85 1722.72 2338.81 1707.22Z" fill="#FBFF00" stroke="black"/>
<path d="M1643.81 1979.22L1651.94 1970.8C1667.29 1954.9 1692.63 1954.46 1708.52 1969.81L1717.23 1978.24C1733.51 1993.96 1733.51 2020.04 1717.23 2035.76L1708.52 2044.19C1692.63 2059.54 1667.29 2059.1 1651.94 2043.2L1643.81 2034.78C1628.85 2019.28 1628.85 1994.72 1643.81 1979.22Z" fill="#FBFF00" stroke="black"/>
</svg>
