<svg width="3176" height="2178" viewBox="0 0 3176 2178" fill="none" xmlns="http://www.w3.org/2000/svg">
<path d="M2140.48 430.607L2117.34 621.895L1746.31 789.011L1665.33 730.371L1603.26 758.348L1463.62 618.836L1507.77 449.856L1659.6 471.342L1757.39 260.358L1944.5 307.21L2140.48 430.607Z" fill="#213E60"/>
<path d="M774.889 1535.14L758.274 1401L640.308 1236.42L629.35 1000.22L536.307 932.701L602.885 732.162L756.573 653.752L921.338 652.185L1023.01 725.596L1168.98 623.909L1267.32 814.302L1233.94 961.125L1349.92 1084.37L1264.32 1229.41L1141.92 1136.97L958.445 1411.22L959.592 1504.48L774.889 1535.14Z" fill="#213E60"/>
<path d="M2288.31 1866.91L2247.41 1687.26L2155.91 1578.33L2144.28 1409.5L2204.09 1330.57L2320.44 1315.28L2317.15 1467.02L2409.52 1683.83L2477.88 1723.52L2661.79 1734.71L2682.33 1831.1L2615.23 1942.41L2499.72 1872.06L2288.31 1866.91Z" fill="#213E60"/>
<path d="M536.307 932.701L629.35 1000.22L640.308 1236.42L758.274 1401L662.264 1360.11L471.706 1446.13L481.319 1308.41L340.606 1259.02L177.938 1354.37L134.937 1198.44L21.5202 1146.74L2.76904 1064.16L202.9 1126.82L331.468 1015.07L446.863 1045.5L536.307 932.701Z" fill="#213E60"/>
<path d="M2799.5 1477.92L2768.68 1395.63L2557.2 1247.24L2418.86 1235.75L2371.23 929.119L2438.92 779.163L2562.86 558.406L2616.58 679.639L2745.46 700.156L2723.86 818.33L2905.28 1052.96L2871.81 1228.73L2799.5 1477.92Z" fill="#213E60"/>
<path d="M2144.28 1409.5L2155.91 1578.33L2247.41 1687.26L2288.31 1866.91L2168.69 1824.98L2100.21 1931.59L1975.2 1882.2L1896.71 1959.12L1833.62 1833.11L1751.53 1409.5L1932.87 1409.43L2144.28 1409.5Z" fill="#213E60"/>
<path d="M1264.32 1229.41L1349.93 1084.37L1408.59 970.675L1516.15 957.022L1623 826.761L1667.94 935.536L1782.19 1014.99L1957.56 926.732L1993.08 1140.85L1937.03 1162.26L1932.87 1409.43L1751.53 1409.5L1604.02 1409.8L1467.85 1358.55L1264.32 1229.41Z" fill="#213E60"/>
<path d="M1507.77 449.856L1463.62 618.836L1603.26 758.348L1665.33 730.371L1623 826.761L1516.15 957.022L1408.59 970.675L1349.93 1084.37L1233.94 961.125L1267.33 814.302L1168.98 623.91L1108.89 272.892L1517.22 121.518L1507.77 449.856Z" fill="#213E60"/>
<path d="M959.593 1504.48L958.445 1411.22L1141.92 1136.97L1264.32 1229.41L1467.85 1358.55L1604.02 1409.8L1658.8 1830.57L1519.67 1946.44L1432.88 1742.84L1196.95 1784.62L1125.94 1669.2L959.593 1504.48Z" fill="#213E60"/>
<path d="M758.274 1401L774.889 1535.14L719.862 1558.71L719.941 2107.29L576.578 1955.54L479.302 1991.05L394.961 1880.93L269.518 1611.83L356.509 1505.37L471.706 1446.13L662.264 1360.11L758.274 1401Z" fill="#213E60"/>
<path d="M2140.48 430.607L1944.5 307.21L1757.39 260.358L1659.6 471.342L1507.77 449.855L1517.22 121.518L1685.43 72.7258L1745.2 2L1887.58 22.218L1919.62 200.45L2099.73 299.153L2140.48 430.607Z" fill="#213E60"/>
<path d="M2117.34 621.895L2140.48 430.607L2099.73 299.153L2274.07 200.897L2450.27 324.22L2562.86 558.406L2438.92 779.163L2248.4 785.355L2145.5 723.582L2117.34 621.895Z" fill="#213E60"/>
<path d="M1751.53 1409.5L1833.62 1833.11L1896.71 1959.12L1714.43 2176.37L1559.19 2118.18L1519.67 1946.44L1658.8 1830.57L1604.01 1409.8L1751.53 1409.5Z" fill="#213E60"/>
<path d="M602.885 732.162L536.307 932.701L446.863 1045.5L331.468 1015.06L202.9 1126.82L2.76916 1064.16L0 832.953L137.192 731.639L285.777 573.625L512.492 586.681L602.885 732.162Z" fill="#213E60"/>
<path d="M1665.33 730.371L1746.31 789.011L2117.34 621.895L2145.5 723.582L2248.4 785.355L2438.92 779.163L2371.23 929.12L2418.86 1235.75L2320.44 1315.28L2204.09 1330.57L2144.28 1409.5L1932.87 1409.43L1937.03 1162.26L1993.08 1140.85L1957.56 926.732L1782.19 1014.99L1667.94 935.536L1623 826.761L1665.33 730.371Z" fill="#213E60"/>
<path d="M2661.79 1734.71L2477.88 1723.52L2409.52 1683.83L2317.15 1467.02L2320.44 1315.28L2418.86 1235.75L2557.2 1247.24L2768.68 1395.63L2799.5 1477.92L2650.91 1550.88L2661.79 1734.71Z" fill="#213E60"/>
<path d="M2871.81 1228.73L2905.28 1052.96L2723.86 818.331L2745.46 700.156L2922.33 682.027L3031.52 868.316L3156.84 880.104L3140.11 1030.28L3072.9 1055.72L3069.37 1227.76L3001.02 1285.36L2871.81 1228.73Z" fill="#213E60"/>
<circle cx="2364.84" cy="1775.37" r="50" fill="#FBFF00"/>
<circle cx="1861" cy="622" r="50" fill="#FBFF00"/>
<path d="M2413 1460L2461.26 1410L2513 1460L2461.26 1510L2413 1460Z" fill="#D9D9D9" stroke="black"/>
<circle cx="2005" cy="1760" r="35" fill="#D9D9D9"/>
<circle cx="1737" cy="1778" r="35" fill="#D9D9D9"/>
<circle cx="1702" cy="1992" r="50" fill="#FBFF00"/>
<circle cx="2567.84" cy="788.37" r="35" fill="#D9D9D9"/>
<circle cx="2066" cy="885" r="35" fill="#D9D9D9"/>
<circle cx="1693" cy="1162" r="35" fill="#D9D9D9"/>
<circle cx="882" cy="858" r="35" fill="#D9D9D9"/>
<circle cx="1299" cy="355" r="35" fill="#D9D9D9"/>
<circle cx="1767" cy="139" r="35" fill="#D9D9D9"/>
<circle cx="2331" cy="425" r="35" fill="#D9D9D9"/>
<circle cx="346" cy="682" r="35" fill="#D9D9D9"/>
<circle cx="457" cy="1172" r="35" fill="#D9D9D9"/>
<circle cx="422" cy="1684" r="35" fill="#D9D9D9"/>
<circle cx="2877" cy="788" r="35" fill="#D9D9D9"/>
</svg>
